<?xml version="1.0" encoding="UTF-8"?><svg id="Calque_1" xmlns="http://www.w3.org/2000/svg" viewBox="0 0 38 38"><defs><style>.cls-1,.cls-2{stroke-width:0px;}.cls-2{fill:#fff;}</style></defs><path class="cls-1" d="m32.43,5.57C29,2.13,24.24,0,19,0,8.51,0,0,8.51,0,19c0,5.24,2.13,10,5.57,13.43,3.43,3.44,8.19,5.57,13.43,5.57s10-2.13,13.43-5.57c3.44-3.43,5.57-8.19,5.57-13.43s-2.13-10-5.57-13.43Zm-8.77,24.2l-6.32-8.46-7.83,8.46h-2.01l8.94-9.66L7.55,8.23h6.85l5.82,7.79,7.21-7.79h2.01l-8.32,8.99,9.38,12.55h-6.84Z"/><path class="cls-2" d="m21.12,17.22l8.32-8.99h-2.01l-7.21,7.79-5.82-7.79h-6.85l8.89,11.88-8.94,9.66h2.01l7.83-8.46,6.32,8.46h6.84l-9.38-12.55Zm-10.61-7.5h3.14l13.9,18.56h-3.15L10.51,9.72Z"/><polygon class="cls-1" points="27.55 28.28 24.4 28.28 10.51 9.72 13.65 9.72 27.55 28.28"/></svg>