<?xml version="1.0" encoding="utf-8"?>
<!-- Generator: Adobe Illustrator 27.5.0, SVG Export Plug-In . SVG Version: 6.00 Build 0)  -->
<svg version="1.1" id="Calque_1" xmlns="http://www.w3.org/2000/svg" xmlns:xlink="http://www.w3.org/1999/xlink" x="0px" y="0px"
	 viewBox="0 0 295 47.2" style="enable-background:new 0 0 295 47.2;" xml:space="preserve">
<style type="text/css">
	.st0{fill:#1D1D1F;}
</style>
<path class="st0" d="M263.7,12.8c0.4-0.3,0.6-0.5,0.7-0.6c2.2-3.2,5.5-3.9,9.2-3.3c2.4,0.3,4.1,1.4,5,3.7c0.1,0.2,0.3,0.4,0.5,0.7
	c0.2-0.2,0.3-0.3,0.4-0.5c1-2.3,2.9-3.4,5.3-3.9c1.9-0.4,3.7-0.3,5.5,0.3c2.9,0.9,4.1,3.1,4.5,5.8c0.1,0.9,0.1,1.7,0.1,2.6
	c0,5.4,0,10.7,0,16.1c0,1-0.2,1.1-1.2,1.1c-2.1,0-4.2,0-6.2,0c-0.2,0-0.5,0-0.7,0c-0.5,0-0.6-0.3-0.6-0.7c0-4.8,0.1-9.6,0.1-14.4
	c0-0.2-0.1-0.5-0.1-0.7c-0.5-2.7-3.3-3.8-5.6-2.1c-0.7,0.5-1.1,1.2-1.1,2.2c0,5,0,10,0,14.9c0,0.6-0.1,0.9-0.8,0.9c-2.3,0-4.7,0-7,0
	c-0.7,0-1-0.3-1-1c0-4.7,0-9.4,0-14.1c0-0.3,0-0.6,0-0.9c-0.2-1.6-1.1-2.5-2.5-2.7c-1.4-0.3-3.3,0.4-3.9,1.7c-0.3,0.6-0.3,1.4-0.3,2
	c0,4.2,0,8.4,0,12.6c0,0.5,0,1.1,0.1,1.6c0,0.5-0.1,0.8-0.7,0.8c-2.4,0-4.8,0-7.2,0c-0.9,0-0.9-0.1-0.8-0.9c0-0.5,0.1-1,0.1-1.4
	c0-6.6,0-13.1,0-19.7c0-0.8-0.1-1.6-0.1-2.5c0-0.5,0.2-0.8,0.8-0.8c2.2,0,4.5,0,6.7,0c0.9,0,1,0.1,1,1
	C263.9,11.1,263.8,11.8,263.7,12.8L263.7,12.8z"/>
<path class="st0" d="M38.8,11.9c1.2-1.9,2.9-3,5.1-3.2c2.2-0.3,4.2,0.2,5.8,1.8c0.1-0.2,0.2-0.3,0.3-0.5c0.1-0.6,0.5-0.7,1.1-0.7
	c1.8,0.1,1.5,0.1,1.6-1.5c0-1.5,0.1-3,0.1-4.5c0-0.7,0.2-1,1-1c2,0,4.1,0,6.1,0c0.2,0,0.4,0,0.7,0c0.7,0.1,1,0.4,1,1.1
	c-0.1,1.6-0.1,3.3-0.2,4.9c0,0.7,0.2,1,0.9,0.9c1.1,0,2.2,0,3.3,0c0.5,0,0.7,0.2,0.7,0.7c0,1.7,0,3.4,0,5.1c0,0.7-0.5,0.7-1,0.7
	c-1,0-1.9,0-2.9-0.1c-0.7,0-0.9,0.2-0.9,0.8c0,2.6-0.1,5.2-0.1,7.8c0,0.5,0.1,1,0.1,1.5c0.2,1,1.1,1.8,2.2,1.9c0.6,0,1.3,0,1.9-0.1
	s0.9,0.1,1,0.6c0.3,1.5,0.5,3,0.7,4.6c0,0.3-0.2,0.8-0.4,0.9c-3.4,1.8-6.9,2-10.4,0.4c-2.2-1-3.2-3-3.6-5.3
	c-0.2-1.3-0.3-2.6-0.3-3.9c0-2.8,0-5.6,0-8.4c0-0.7-0.2-0.9-0.9-0.9c-1.1-0.1-1.9,0.2-2.7,1.1c-0.7,0.9-1.6,1.6-2.4,2.4
	c-0.4,0.3-0.7,0.7-1.1,0.9c-0.4,0.3-0.8,0.1-0.9-0.4c0-0.1,0-0.3,0-0.4c-0.2-2.2-2.5-3.3-4.4-2.1c-1,0.6-1.6,1.4-1.5,2.7
	c0.1,3.2,0.1,6.3,0.1,9.5c0,1.4,0,2.9,0,4.3c0,0.7-0.2,0.9-0.9,0.9c-2.2,0-4.5,0-6.7,0c-1,0-1.1-0.1-1.1-1c0-7.8,0-15.7,0-23.5
	C30.1,9.2,30.3,9,31,9c2.2,0,4.4,0,6.6,0c1,0,1,0.1,1,1c0,0.5,0,0.9,0,1.4C38.7,11.8,38.8,11.8,38.8,11.9L38.8,11.9z"/>
<path class="st0" d="M77.8,11.7c0.3-0.2,0.5-0.2,0.5-0.3c2-2.1,4.6-2.7,7.4-2.5c5,0.3,8.7,2.7,10.4,7.3c1.9,5.4,1.6,10.7-2.2,15.3
	c-1.7,2.1-4.2,3.1-6.8,3.5c-2.2,0.3-4.3,0.1-6.2-0.8c-0.5-0.3-1-0.7-1.5-1c-0.3-0.2-0.6-0.4-1-0.7c0,0.3-0.1,0.5-0.1,0.6
	c0,3,0.1,6,0.1,9c0,0.6-0.3,0.9-0.9,0.9c-2.4,0-4.8,0-7.2,0c-0.7,0-0.7-0.4-0.7-0.8c0-2.1,0-4.1,0-6.2c0-8.2,0-16.4,0-24.6
	c0-0.2,0-0.4,0-0.6c0-1.5,0-1.5,1.5-1.5c1.9,0,3.8,0,5.7,0c1,0,1.2,0.1,1.1,1.1C77.9,10.8,77.9,11.2,77.8,11.7L77.8,11.7z
	 M88.6,22.1c0.3-4-3.8-6.3-7.1-4.9c-2.2,0.9-3.3,3.1-3.1,5.7c0.3,3.1,3.8,5.3,6.9,4.2C87.4,26.4,88.6,24.6,88.6,22.1z"/>
<path class="st0" d="M18.9,12.2c0-0.7-0.1-1.3-0.1-2s0.3-0.9,1-0.9c2.3,0,4.6,0,6.9,0c0.7,0,0.8,0.2,0.8,0.8c0,7.9,0,15.8,0,23.7
	c0,0.6-0.2,0.9-0.8,0.9c-2.2,0-4.4,0-6.5-0.1c-0.9,0-1-0.2-0.9-1.1c0.1-0.6,0.1-1.1,0.1-1.7c-0.1,0-0.1-0.1-0.2-0.1
	c-0.2,0.1-0.4,0.2-0.5,0.3c-1.9,2.5-4.6,3-7.5,2.9c-2.3-0.1-4.4-0.8-6.3-2.2c-2.7-2.1-4.2-4.9-4.7-8.1c-0.7-3.9,0-7.6,2.4-10.9
	c2.3-3,5.4-4.6,9.3-4.7c2.5,0,4.7,0.8,6.3,2.9c0.1,0.2,0.3,0.3,0.5,0.5C18.8,12.3,18.9,12.3,18.9,12.2L18.9,12.2z M18.9,22.1
	c0.2-3.5-2.6-5.2-5-5.2c-3.2,0-5.3,2.1-5.3,5.4c-0.1,2.8,2.4,5.1,5.3,5.1C16,27.4,19,25.5,18.9,22.1L18.9,22.1z"/>
<path class="st0" d="M107,11.9c0.4-0.3,0.6-0.5,0.8-0.7c2.1-2.4,4.7-3,7.8-2.2c1.3,0.3,2.2,1.1,3,2.2c0.2,0.3,0.4,0.5,0.6,0.7
	c0.1,0,0.1,0,0.2-0.1c0-0.5,0-1.1,0-1.6c0-0.6,0.2-0.9,0.9-0.9c2.4,0,4.8,0,7.1,0c0.6,0,0.7,0.3,0.7,0.8c0,1.4,0,2.9,0,4.3
	c0,6.3,0,12.7,0,19.1c0,1.1,0,1.1-1.2,1.1c-2.2,0-4.5,0-6.7,0c-0.7,0-0.9-0.2-0.9-0.9c0-6.1,0-12.1,0-18.2c0-0.1,0-0.3-0.1-0.6
	c-0.3,0.2-0.5,0.4-0.7,0.6c-1.2,1.2-2.4,2.4-3.6,3.6c-0.2,0.2-0.5,0.5-0.8,0.7s-0.7,0.4-1,0.3c-0.2,0-0.3-0.5-0.4-0.9
	c-0.2-2.2-2.5-3.2-4.4-2c-0.9,0.6-1.4,1.3-1.4,2.5c0.1,4.6,0,9.3,0.1,13.9c0,0.7-0.2,0.9-1,0.9c-2.4-0.1-4.7,0-7.1,0
	c-0.5,0-0.7-0.1-0.7-0.7c0-7.8,0-15.7,0-23.5c0-1.1,0-1.1,1.2-1.1c2.1,0,4.2,0,6.3,0c1.1,0,1.2,0.1,1.1,1.1
	C107,10.8,107.1,11.2,107,11.9L107,11.9z"/>
<path class="st0" d="M239.5,35.5c-7.3,0.3-13.5-5.3-13.6-13.2C225.8,15,231,8.6,239.4,8.6c8.7-0.1,13.7,6.1,13.9,13.2
	C253.5,30.1,247,35.7,239.5,35.5z M244.7,22.1c0-0.2,0-0.4,0-0.6c-0.1-3.1-2.9-5.2-6-4.7s-5.1,3.8-4.1,7c0.9,2.9,3.6,4.5,6.4,3.7
	C243.2,26.8,244.7,24.7,244.7,22.1z"/>
<path class="st0" d="M173.1,24.2c-2.4,0-4.9,0-7.3,0c-0.7,0-0.8,0.2-0.7,0.8c0.6,2.6,3.6,4.2,6.5,3.4c1.3-0.4,2.4-1.1,3.3-2.1
	c0.4-0.4,0.7-0.5,1,0c1.1,1.5,2.1,3,3.2,4.5c0.7,1,0.6,1.3-0.4,2c-1.9,1.3-4.1,2.2-6.4,2.4c-2.8,0.3-5.6,0.2-8.2-1
	c-4.2-2-6.6-5.4-7.3-9.9c-0.6-3.5-0.1-6.9,1.9-9.9c2.1-3.3,5.2-5.1,9.2-5.6c2.6-0.3,5.1-0.2,7.5,0.9c3.7,1.7,5.7,4.7,6.2,8.6
	c0.2,1.5,0.1,3.1-0.1,4.7c-0.1,1.1-0.3,1.1-1.4,1.1C177.7,24.2,175.4,24.2,173.1,24.2L173.1,24.2z M169.4,19.7c1.2,0,2.5,0,3.7,0
	c0.2,0,0.6-0.3,0.6-0.4c0-1.5-1.4-3.2-2.9-3.6c-2.8-0.7-5.1,0.7-5.6,3.5c-0.1,0.5,0.1,0.6,0.5,0.6C166.9,19.7,168.1,19.7,169.4,19.7
	L169.4,19.7z"/>
<path class="st0" d="M213.1,35.5c-5.4,0-9.6-2.2-12.1-6.9c-1.7-3.2-1.9-6.7-0.9-10.1c1.7-6.3,7.2-10.2,13.9-9.9c3.1,0.2,6,1,8.4,3.1
	c1.3,1.2,2.2,2.6,2.9,4.2c0.2,0.5,0.1,0.8-0.4,1c-2.1,0.8-4.1,1.7-6.2,2.5c-0.2,0.1-0.6-0.1-0.7-0.3c-1.5-2.6-6.3-3.2-8.6-0.6
	c-1.5,1.7-1.8,5.9,0.8,7.8c2.5,1.8,6,1.3,7.7-1.3c0.3-0.4,0.5-0.6,1-0.3c1.9,0.8,3.8,1.6,5.7,2.4c1.1,0.5,1.2,0.6,0.6,1.6
	c-1.3,2.3-3.1,4.3-5.6,5.5C217.4,35.2,215.3,35.5,213.1,35.5L213.1,35.5z"/>
<path class="st0" d="M144.2,35.5c-4.9-0.1-8.8-1.6-11.5-5.3c-2.1-2.8-2.7-6-2.4-9.4c0.3-3,1.3-5.7,3.4-7.9c2.1-2.3,4.8-3.7,8-4.2
	c3.4-0.4,6.6-0.1,9.6,1.7c2.2,1.3,3.7,3.3,4.7,5.6c0.2,0.5-0.1,0.8-0.5,0.9c-1.6,0.7-3.3,1.3-4.9,2c-0.5,0.2-1,0.7-1.5,0.6
	c-0.4-0.1-0.7-0.7-1.1-1.1c-1.5-1.5-4-2-6.1-1.1c-2,0.8-3.1,2.4-3.1,4.8c0,2.6,1.3,4.4,3.6,5.1c2.5,0.7,4.7-0.1,6.2-2.2
	c0.1-0.2,0.6-0.4,0.8-0.3c2,0.8,4,1.7,6,2.5c1,0.4,1,0.6,0.5,1.5c-1.9,3.4-4.8,5.7-8.7,6.5C146,35.4,144.9,35.4,144.2,35.5
	L144.2,35.5z"/>
<path class="st0" d="M186.1,30.2c0-1.2,0-2.3,0-3.5c0-1,0.3-1.3,1.4-1.3c2.2,0,4.5,0,6.7,0c0.6,0,1,0.2,1,0.9c0,2.5,0.1,5.1,0.1,7.6
	c0,0.5-0.2,0.8-0.8,0.8c-2.5,0-5,0-7.4,0c-0.8,0-1-0.3-1-1C186.1,32.4,186.1,31.3,186.1,30.2L186.1,30.2z"/>
<path class="st0" d="M123.8,0c1.2,0,2.3,0,3.5,0c0.6,0,0.9,0.2,0.9,0.8c0,1.6,0,3.3,0,4.9c0,0.5-0.2,0.8-0.8,0.8c-2.4,0-4.8,0-7.2,0
	c-0.6,0-0.7-0.2-0.7-0.7c0-1.7,0-3.4,0-5.1c0-0.5,0.2-0.7,0.7-0.7C121.4,0,122.6,0,123.8,0L123.8,0z"/>
<path class="st0" d="M186.9,47V36.8h3.4c0.7,0,1.2,0.1,1.7,0.3c0.4,0.2,0.8,0.5,1,0.9s0.3,0.9,0.3,1.4c0,0.4-0.1,0.8-0.2,1.1
	c-0.1,0.3-0.3,0.5-0.6,0.7c-0.2,0.2-0.5,0.3-0.8,0.4v0.1c0.3,0,0.6,0.1,1,0.3c0.3,0.2,0.6,0.5,0.8,0.9s0.3,0.8,0.3,1.3
	s-0.1,1-0.3,1.4s-0.6,0.7-1.1,0.9s-1.1,0.3-1.8,0.3h-3.7V47z M187.8,46.1h2.7c0.8,0,1.4-0.2,1.7-0.5c0.4-0.3,0.6-0.8,0.6-1.3
	c0-0.4-0.1-0.7-0.3-1.1c-0.2-0.3-0.4-0.6-0.8-0.8c-0.3-0.2-0.7-0.3-1.2-0.3h-2.7V46.1z M187.8,41.4h2.6c0.4,0,0.8-0.1,1.1-0.2
	c0.3-0.2,0.5-0.4,0.7-0.7s0.3-0.6,0.3-1c0-0.5-0.2-1-0.5-1.3c-0.4-0.3-0.9-0.5-1.6-0.5h-2.5v3.7H187.8z M195,36.8h1.1l3,4.8h0.1
	l3-4.8h1.1l-3.7,5.8V47h-0.9v-4.4L195,36.8z M209.9,47h-2l3.6-10.2h2.3l3.6,10.2h-2l-2.7-8.1h-0.1L209.9,47z M209.9,43h5.4v1.5h-5.4
	V43z M218.7,47V36.8h3.8c0.8,0,1.4,0.1,2,0.4c0.5,0.3,0.9,0.7,1.2,1.1c0.3,0.5,0.4,1.1,0.4,1.7c0,0.7-0.1,1.2-0.4,1.7
	c-0.3,0.5-0.7,0.8-1.2,1.1s-1.2,0.4-2,0.4h-2.7v-1.5h2.5c0.5,0,0.8-0.1,1.1-0.2c0.3-0.1,0.5-0.3,0.6-0.6c0.1-0.2,0.2-0.6,0.2-0.9
	s-0.1-0.7-0.2-0.9c-0.1-0.3-0.4-0.5-0.7-0.6s-0.7-0.2-1.1-0.2h-1.7V47H218.7z M224,42.4l2.5,4.6h-2.1l-2.5-4.6H224z M227.4,38.3
	v-1.5h8.1v1.5h-3.1V47h-1.8v-8.6h-3.2V38.3z M237.1,36.8h2.3l3,7.4h0.1l3-7.4h2.3V47H246v-7h-0.1l-2.8,7h-1.3l-2.8-7h-0.1v7h-1.8
	L237.1,36.8L237.1,36.8z M251.1,47h-2l3.6-10.2h2.3l3.6,10.2h-2l-2.7-8.1h-0.1L251.1,47z M251.1,43h5.4v1.5h-5.4V43z M259.9,47V36.8
	h3.8c0.8,0,1.4,0.1,2,0.4c0.5,0.3,0.9,0.7,1.2,1.1c0.3,0.5,0.4,1.1,0.4,1.7c0,0.7-0.1,1.2-0.4,1.7s-0.7,0.8-1.2,1.1s-1.2,0.4-2,0.4
	H261v-1.5h2.5c0.5,0,0.8-0.1,1.1-0.2c0.3-0.1,0.5-0.3,0.6-0.6c0.1-0.2,0.2-0.6,0.2-0.9s-0.1-0.7-0.2-0.9c-0.1-0.3-0.4-0.5-0.7-0.6
	c-0.3-0.1-0.7-0.2-1.1-0.2h-1.7V47H259.9z M265.1,42.4l2.5,4.6h-2.1l-2.5-4.6H265.1z M269,47V36.8h1.8v4.7h0.1l4-4.7h2.3l-3.9,4.6
	l4,5.6H275l-3-4.4l-1.1,1.3v3H269V47z M278.5,47V36.8h6.6v1.5h-4.8v2.8h4.4v1.5h-4.4v2.8h4.8V47H278.5z M286.5,38.3v-1.5h8.1v1.5
	h-3.1V47h-1.8v-8.6h-3.2V38.3z"/>
</svg>
