<?xml version="1.0" encoding="utf-8"?>
<!-- Generator: Adobe Illustrator 27.6.1, SVG Export Plug-In . SVG Version: 6.00 Build 0)  -->
<svg version="1.1" id="Calque_1" xmlns="http://www.w3.org/2000/svg" xmlns:xlink="http://www.w3.org/1999/xlink" x="0px" y="0px"
	 viewBox="0 0 17.3 17.4" style="enable-background:new 0 0 17.3 17.4;" xml:space="preserve">
<style type="text/css">
	.st0{fill:#535862;}
</style>
<g id="Calque_2_00000139269007242922818780000002911161433553707940_">
</g>
<g>
	<path class="st0" d="M15.6,12.9l-1.1,0.9c-1.6,1.8-3.5,3.2-5.8,3.2c-2.5,0-4.7-1.1-6.1-3.2c0,0-0.5-0.9-0.5-1l0.3-0.1
		C3.9,11.2,6.6,10,8.8,10s4.8,1.2,6.1,2.7C15,12.7,15.7,12.8,15.6,12.9z"/>
	<path class="st0" d="M8.6,2.7c2,0,3.4,1.6,3.4,3.4c0,2-1.5,3.4-3.4,3.4S5.2,8.1,5.2,6.1C5.2,4.3,6.7,2.7,8.6,2.7z"/>
	<path class="st0" d="M8.6,17.2c-4.7,0-8.5-3.8-8.5-8.5c0-4.7,3.8-8.5,8.5-8.5c4.7,0,8.5,3.8,8.5,8.5C17.1,13.4,13.3,17.2,8.6,17.2z
		 M8.6,1.2c-4.1,0-7.5,3.4-7.5,7.5s3.4,7.5,7.5,7.5s7.5-3.4,7.5-7.5S12.8,1.2,8.6,1.2z"/>
</g>
</svg>
