<?xml version="1.0" encoding="utf-8"?>
<!-- Generator: Adobe Illustrator 27.6.1, SVG Export Plug-In . SVG Version: 6.00 Build 0)  -->
<svg version="1.1" id="Calque_1" xmlns="http://www.w3.org/2000/svg" xmlns:xlink="http://www.w3.org/1999/xlink" x="0px" y="0px"
	 viewBox="0 0 16.8 16.2" style="enable-background:new 0 0 16.8 16.2;" xml:space="preserve">
<style type="text/css">
	.st0{fill:none;}
	.st1{fill:#C01B88;}
</style>
<g id="Groupe_15" transform="translate(0 0.834) rotate(-3)">
	<g id="Ellipse_11" transform="translate(0 0)">
		<circle class="st0" cx="6.6" cy="5.8" r="5.6"/>
		<path class="st1" d="M6.3,11.3c-1.4-0.1-2.7-0.6-3.6-1.6C1.6,8.6,1,7.2,1,5.8c0-3.1,2.5-5.6,5.6-5.6l0,0c3.1,0,5.6,2.5,5.6,5.6
			c0,1.5-0.6,2.9-1.6,3.9S8,11.3,6.6,11.3C6.5,11.3,6.4,11.3,6.3,11.3z M6.6,0.9L6.6,0.9c-2.7,0-4.9,2.2-4.9,4.9
			c0,1.3,0.5,2.5,1.4,3.4c0.9,0.9,2.1,1.4,3.4,1.4c1.3,0,2.5-0.5,3.4-1.4c0.9-0.9,1.4-2.1,1.4-3.4C11.4,3.1,9.2,0.9,6.6,0.9z"/>
	</g>
	<rect x="11.9" y="8.8" transform="matrix(0.7171 -0.6969 0.6969 0.7171 -5.2727 12.1182)" class="st1" width="0.7" height="7.5"/>
</g>
</svg>
