<?xml version="1.0" encoding="utf-8"?>
<!-- Generator: Adobe Illustrator 27.6.1, SVG Export Plug-In . SVG Version: 6.00 Build 0)  -->
<svg version="1.1" id="Calque_1" xmlns="http://www.w3.org/2000/svg" xmlns:xlink="http://www.w3.org/1999/xlink" x="0px" y="0px"
	 viewBox="0 0 17.2 15.4" style="enable-background:new 0 0 17.2 15.4;" xml:space="preserve">
<style type="text/css">
	.st0{fill:#535862;}
</style>
<path class="st0" d="M8.7,15.4L2.4,9.1c-2.9-2.9-2.5-6-0.9-7.6c1.5-1.5,4.4-2,7.3,0.6c1.7-1.5,3.6-2.2,5.4-1.7c1.5,0.4,2.6,1.5,3,3
	c0.5,1.9-0.2,4-2,5.7L8.7,15.4z M4.5,1.2c-1,0-1.8,0.4-2.4,0.9C0.9,3.4,0.7,5.9,3.1,8.4L8.7,14l5.6-5.6c1.5-1.5,2.2-3.3,1.8-4.8
	c-0.3-1.1-1.1-2-2.3-2.3c-1.5-0.4-3.3,0.2-4.8,1.8L8.7,3.5L8.4,3.1C7,1.8,5.7,1.2,4.5,1.2z"/>
</svg>
